<svg viewBox="-329 176.2 600 179.7" x="0" y="0" width="600" height="180" xml:space="preserve" preserveAspectRatio="xMidYMid meet" xmlns="http://www.w3.org/2000/svg" version="1.1"><style type="text/css"> .st0{fill:#80ced6;} </style><g transform="translate(0 225) scale(0.05 -0.05)"><path class="st0" d="M4276.4-2224.3c-498.9 0.8-1133.9-102.9-1757.7-43.5 -401.3 38.2-809.8-78.3-1197.6-74.5 -1026.6 9.9-2052.9 18.8-2053.6 69.8 -270.6 67.6-231.4 28.9-508.9 42.4 -120.8 5.9-558.3 65.2-679 71.2 -105.6 5.3-223.8-5.4-327.6 11.9 -39 6.5-69.2 31.2-110.9 30 -50.4-1.5-251.4-48.3-310.3-52 -64.4-4.1-69.5-17.6-120.9-39.4 -14.8-6.3-124.7-38.1-110.4 12.9 10.2 36.7 118.3-5.1 118.3 21.5 0 35.9-193.2 3.2-210 20.8 -27.2 28.4 6.3 192.1-11.5 233.5 -49.6 115.7-160.8-39.8-219.5-79.8 -47.1-32-101.1-65.1-157.5-76.8 -43.9-9-126.9 8.8-156.1-33.9 -2.4-3.5 74.3-23 74.6-45.9 0.5-44.6-4.4-53.3-34.1-52 -4.1 0.2-4.3 28.3-7.3 29.6 -18.2 7.6-10.4 1.3-35.5-1.6 -41.3-4.7-52.7-34-86.4 6.8 -40.8 49.3 10.6 168.4-30.5 203.3 -36 30.5-38.1-37.4-49-43.4 -35.5-19.4-4.6 2.6-24.1 27.4 -11.9 15.1-27.6 25.5-41.2 46.5 -31.5 48.9-26.4 150.3-32.1 205.5 -33.5 326.8-40.9 654.6-77.8 981 -22.7 200.4-55.3 403.7-62.1 605.4 -0.6-5.4-20.8 284.7-25.4 362.3 -4 69-35.9 558.3-36.9 592.8 -0.5 14.9-15.3 106.2-28.9 68.8 1.7-9.5 3.9-18.8 6.7-28.1 -5.5-10.9-108.6 12-119.1 20.3 -26.1 20.8-14.2 105.8-59.1 80.4 -7.3-4.1-6.4-54.9-17.3-65.5 -11.2-10.9-41.3 4.8-49.5-10.9 -22-42.5 10.5-37.1 27.6-67.9 35.8-64.4 21.1-165.9 16.5-235.8 -3.3-50.8-50.1-525.8-39.1-575.9 2.1-9.7-25.8-351-35.4-490.1 -20.7-300.3-45.5-600.1-68.7-900.2 -4.7-61.3-19.6-115.1-30.7-175.2 -12.4-67 2.3-83.3-66.2-83.9 -26.4-0.2-127.7 19.8-62-52 17.2-18.8 57.4 1.4 75.7-10 37.8-23.5 0.7-17.5 14.1-52.9 5.6-14.7 57.4 120.5 62.9 144.4 5.3-24.5 11.2-94 34.1-108.5 67-42.4 73.1 91.4 116.2 102.2 6.1 1.5 6.5-47.3 25.1-42.7 24.3 6 100.7-148.6 110.5-221 -35.8 0-154.5-0.9-165.7-16 -6.1-8.2-7.3-62.8-11-62.4 -26.5 3.2-27.9 78.7-25.7 88.9 0.4 2.1 60.7 79.4 27.5 86.2 -15.1 3.1-107.3-28.7-114.7-26.7 -56.8 15.2-139.3-49.2-172.4-44.2 -29.4 4.4-24.7 51.9-77.2 26.4 -15.4-7.5-15.3-30.5-34.3-39.6 -28.8-13.8-82.3 34.6-112.2 15.5 -22.5-14.4-8.7-103.1-8.7-126.9 0-7.2-12.7-30.1-18.4-32.8 -27.5-13.1-58.3 1.3-86.3-6.9 -30.2-8.8-19.6-45.8-32.2-67.9 -8-14.2-40.6-45.4-44-47.7 -24.2-17.2-53.8-36.1-83.8-40.3 -104.7-14.5-217.9 2.5-322.9 4.4 -123 2.2-233.5-22.6-354.3-24.3 -284.6-4-570.2 11.5-854.6 20.2 0-51.5-17.8-152.8 41.3-184.5 8.5-4.6 18.3-5.9 27.8-7.1 44.5-5.8 99.3-24.4 143.4-24.4 24.7-11.2 111-42.9 191-66.3 14.4-4.2 391.8-89.9 606.9-100.1 106.2-5.1 375.6 62.9 378.2 62.6 77.3-1.6 758.7-48.4 800.3-62.4 343.7-3.8 831 55 1174.7 59.4 35.8 4.3-152.8 33.2-118.2 43.8 86.7 26.7 281.7 17.5 289.8 57.9 -38.6 10-76.3 24.1-116.3 28.2 -96.3 9.8-368.9-9.3-421.8-5.2 -374.1 29-822.4-50-1197.2-49.3 -145.5 0.2-232.8-1.9-378.4 0 -62.5 0.9-169.3 51.6-204.5 103.7 -32.2 47.6-119.7 29.1-164.2 7.5 -48.3-23.4 15.1 102 76 86.7 6.4-1.6 67.7-18.6 73.1-13.4 40.8-0.6 55.1 20 86.5-34.3 24.6-42.4 1.5-49.4 49-66.4 71.3-25.4 455-7.8 511.3 57.3 17.4 20.2 491.3-39.6 508.2-39.6 35.3 0 79.4 16.5 88-1.5 9.8-20.5 135-13.4 135 5.5 0 25.8 21 126.6 62.2 66.2 4.1-6 57.7 42.4 73.4 36.1 50.9-20.4 45.5-107.8 119.4-117.5 77.6-10.3 39.6 19.6 34.6 60 -5.7 46.4 13.5 80.7 57 41.1 65.7-59.8-9.5-116.3 95.3-111.1 82.3 4.1 164.6 8.2 246.8 12.4 86.3 4.4 176.3 15.4 262.8 9.5 47.9-3.2 151.3-0.4 183.9-22.1 62.8-41.8-83.2-11.1-112.6-50 29.3-31.2-25.3-121.6 41.1-105.6 28.2-58.3 1911.2-111.7 2324.4 23.5 98.8 32.3 149.6-10.2 229.6-20.4 244.5-31.1 423-62.9 428.6-62.9 -23 61.9 2125.9 32.6 2517.9-1.4 235.6-20.5 928.6 46.5 1187.6 117.7 348.9 95.9 753.7-61.7 982-53.3 612.9 22.5 624 198.6 625 205.3C5364.9-2252.3 4924.9-2225.4 4276.4-2224.3ZM-5838.2-2410.9c-46 42-64 43-64 4 0-44-166-41-202 3 -25 30-21 32 36 24 35-6 59-2 54 7 -6 9-2 16 9 16 11 0 23-10 27-23 9-26 96 11 96 41 0 29 97-1 109-33C-5753.2-2423.9-5796.2-2448.9-5838.2-2410.9ZM-5058.2-2280.9c-19-19-24-18-24 0 0 13-27 24-61 24 -40 0-57 8-48 22 13 21 122 11 146-13C-5039.2-2252.9-5045.2-2267.9-5058.2-2280.9ZM-4794.2-2143.9c-18 8-28-2-28-29 0-37-102-75-129-48 -24 24 116 163 142 141 20-16 27-15 27 5 0 18 6 20 21 5C-4733.2-2097.9-4759.2-2156.9-4794.2-2143.9ZM-4615.2-2033.9c-32 12-31 14 8 16 30 1 48 17 57 51 14 55 48 69 48 19 0-16 14-35 30-42 17-6 30-18 30-27C-4442.2-2038.9-4571.2-2051.9-4615.2-2033.9ZM-3894.2-1621.9c3-52 0-95-8-95 -20 0-57 179-39 190 20 13-1 178-24 187 -9 3-17 30-16 60 0 49 2 50 28 17 20-27 30-30 37-10 6 14 12-37 14-114C-3901.2-1463.9-3897.2-1569.9-3894.2-1621.9ZM-3927.2-971.9c2-30 9-103 16-162 9-75 6-103-9-94 -12 7-22 35-22 61s-10 54-21 61c-12 7-17 26-10 42 6 17 1 48-11 71 -17 31-16 45 5 58C-3937.2-907.9-3931.2-912.9-3927.2-971.9ZM-3975.2-896.9c-15 0-28 20-30 45l-2 45 -9-45c-5-27-23-45-46-45 -62 0-80 209-23 266l43 43v-65c0-35 10-64 23-64 15 0 18 26 10 77 -17 107 30 152 55 52C-3930.2-680.9-3945.2-896.9-3975.2-896.9ZM-4122.2-464.9c0 63 11 60 46-9 26-54 26-57-9-48C-4108.2-515.9-4122.2-493.9-4122.2-464.9ZM-3997.2-511.9c-16-5-26 12-26 48 -2 50-4 52-19 17 -13-31-18-32-19-7 0 17-14 43-31 57 -38 31-43 135-5 105 14-11 42-13 65-4 22 9 29 17 15 18 -14 0-25 10-25 21 0 35 38 22 60-20C-3954.2-329.9-3965.2-500.9-3997.2-511.9ZM-4072.2 443.1c11 6 17 39 14 75 -3 38 4 65 16 65s18-7 14-15c-5-8-3-62 5-120 8-58 7-105-2-105 -9 0-11-13-5-28 6-15 1-34-11-41 -11-7-21 0-21 17 0 16-10 36-23 44 -16 10-20 1-12-29 7-26 2-43-13-43 -17 0-24 46-23 150 1 151 23 206 35 85C-4095.2 462.1-4083.2 438.1-4072.2 443.1ZM-4124.2 743.1c8 0 16-38 19-84 3-47-2-78-11-69C-4136.2 610.1-4142.2 743.1-4124.2 743.1ZM-4129.2 180.1c-35 38-26 63 22 63 15 0 26-16 24-35 -10-102 1-173 25-149 13 13 22 56 19 94 -2 39 3 70 11 70 9 0 17-20 19-45 1-25 7-74 13-110 6-35 3-70-7-76 -11-6-19-20-19-31 0-11 7-16 16-11 9 6 17-7 19-28 1-22-6-39-16-39s-12-16-5-35c7-19 6-30-1-23 -8 7-26 52-41 100l-28 88 -2-75c-2-71-42-112-42-43 0 26-6 28-28 9 -39-31-19 129 24 195C-4100.2 139.1-4100.2 148.1-4129.2 180.1ZM-4169.2-376.9c4 0 7-32 7-71 0-43-8-66-20-59C-4215.2-486.9-4204.2-376.9-4169.2-376.9ZM-4180.2-536.9c12 0 19-45 16-105 -2-58 3-181 12-275 14-154 12-167-17-142C-4207.2-1027.9-4217.2-536.9-4180.2-536.9ZM-4272.2-1375.9c-15-47-70-33-70 18 0 56 44 82 70 41C-4265.2-1327.9-4265.2-1354.9-4272.2-1375.9ZM-4291.2-967.9c-28-37-30-35-30 26 -1 45 8 65 29 65 17 0 30-12 30-26C-4262.2-917.9-4275.2-946.9-4291.2-967.9ZM-4262.2-797.9c-13-23-28-37-34-31 -7 6-1 24 13 41 13 16 19 39 12 50 -8 12-6 32 3 46C-4242.2-650.9-4236.2-748.9-4262.2-797.9ZM-4258.2-656.9c-8 0-16 32-19 70 -6 80 28 95 47 21C-4218.2-613.9-4231.2-656.9-4258.2-656.9ZM-4162.2-1496.9c-22 0-40-13-40-30 0-16-9-30-20-30 -12 0-16 24-10 55 6 30 11 143 11 250 -1 200 5 220 51 160 35-45 37-238 3-252 -15-6-11-10 10-11C-4102.2-1357.9-4107.2-1496.9-4162.2-1496.9ZM-4062.2-930.9c32-9 40-27 40-96 0-54 10-90 28-96 22-9 23-25 5-82l-22-71 -45 55C-4119.2-1143.9-4124.2-914.9-4062.2-930.9ZM-4051.2-1408.9c30 31 5 112-36 112 -8 0-15 20-15 43v44l48-45c27-25 54-77 61-116 21-111-5-226-51-226C-4093.2-1596.9-4098.2-1455.9-4051.2-1408.9ZM-4049.2-1826.9l-15 69c-8 39-6 86 5 107 32 58 41 27 25-79L-4049.2-1826.9ZM-3933.2-1956.9c-51 20-53 18-44-30 6-33 2-49-13-44 -12 5-19 24-16 43 4 18-3 45-14 59 -15 17-14 63 2 148 23 121 56 168 56 79 0-25 13-69 28-99C-3872.2-1917.9-3872.2-1979.9-3933.2-1956.9ZM-3076.2-2178.9c-12-12-33-16-47-8 -13 9-77 15-142 15 -140-1-140 9-7 101l100 69 17-66c10-42 31-69 59-76C-3063.2-2152.9-3058.2-2160.9-3076.2-2178.9ZM-1898.2-2354.3c12 0-535.3-34.3-535.3 0.7 0 8 270 34.3 377 32.3 129-2 171.9 14.4 178.3 0C-1868.2-2343.8-1910.2-2354.3-1898.2-2354.3ZM-1345-2376.7c-19.4-8.1-167.7 4.7-196.7 21.7 -10 7 50.3 29.7 63.3 46.7C-1462.3-2289.3-1328.3-2369.7-1345-2376.7ZM2080-2420c-17.9 50.3 111.7 78.3 240 20C2395.1-2434.1 2160-2420 2080-2420ZM3596.7-2403.3c-15.4-25.7-122.6 30-161.7 30 -21.1 0-157.5-39-171.7-30 -15.8-14.8-40.4 15.1-68.3 15.1 -128.9 0-163.7 58.2-35 58.2 21 0 194.2-4.5 208.3-13.3 15.8 14.8 133.7 23.3 161.7 23.3 80.4 0 78.2 24.2 58.3-34.4C3642.6-2368.9 3692.9-2417 3596.7-2403.3ZM-4782.2-1749.9c0-39 11-47 60-47 45 0 60 9 60 38 0 26-18 40-60 46C-4774.2-1704.9-4782.2-1709.9-4782.2-1749.9ZM-4211.2-1737.9c-7-18-5-53 5-79 16-43 18-44 28-8C-4164.2-1770.9-4193.2-1694.9-4211.2-1737.9Z"/></g></svg>
